# xmcd
#
# Track frame offsets:
#	150
#	17308
#	32503
#	50367
#	67413
#	84943
#	103382
#	124170
#	140384
#	153268
#	167254
#	183535
#	198077
#	217418
#	236792
#	251938
#	268944
#	283453
#	300387
#	316041
#
# Disc length: 4450 seconds
#
# Revision: 1
# Processed by: cddbd v1.5PL3 Copyright (c) Steve Scherf et al.
# Submitted via: audiograbber 1.83.01
#
DISCID=24116014
DTITLE=Various Artist - Seleção Sertaneja Especial 2003
DYEAR=2003
DGENRE=Country
TTITLE0=Zezé Di Camargo and Luciano - Pra mudar minha vida
TTITLE1=Leonardo - Brincadeira tem hora
TTITLE2=Matogrosso and Mathias - Tentei te esquecer
TTITLE3=Rick and Renner - Nos bares da cidade
TTITLE4=Ronaldo Viola and Praiano - Irresistivel paixão
TTITLE5=Gian and Giovani - Na batida do seu coração
TTITLE6=Guilherme and Santiago - O nosso amor
TTITLE7=Edson and Hudson - Mil razões para chorar
TTITLE8=Chrystian and Ralf - A semente do amor
TTITLE9=Chico Rey and Parana e Part.Esp. Leonardo - Alma transparente
TTITLE10=Cezar and Paulinho - Minha amiga
TTITLE11=Jad and Jefferson - Escolta de vagalumes
TTITLE12=Juliano Cezar - Amo voce
TTITLE13=Daniel - Palavras
TTITLE14=Milionario and Jose Rico - O dono do mundo
TTITLE15=Di Paullo and Paulino - Amor de primavera
TTITLE16=Fred and Pedrito - Um grande amor nao termina assim
TTITLE17=Rionegro and Solimões - No fim desta estrada
TTITLE18=Bruno and Marrone - Ligação urbana
TTITLE19=Bruno and Marrone - Vai dar namoro
EXTD=bom
EXTT0=
EXTT1=
EXTT2=
EXTT3=
EXTT4=
EXTT5=
EXTT6=
EXTT7=
EXTT8=
EXTT9=
EXTT10=
EXTT11=
EXTT12=
EXTT13=
EXTT14=
EXTT15=
EXTT16=
EXTT17=
EXTT18=
EXTT19=
PLAYORDER=
